<?xml version="1.0" encoding="UTF-8"?>
<svg version="1.1" xmlns="http://www.w3.org/2000/svg" width="456" height="456">
    <path d="M0 0 C1.19018549 -0.00012053 2.38037098 -0.00024107 3.6066227 -0.00036526 C7.450821 0.00037982 11.29497055 0.00798965 15.13916016 0.01586914 C17.5158689 0.01733981 19.89257797 0.01835975 22.26928711 0.0189209 C31.07227057 0.02415925 39.8752471 0.03812048 48.67822266 0.05102539 C68.35447266 0.07165039 88.03072266 0.09227539 108.30322266 0.11352539 C108.30322266 43.67352539 108.30322266 87.23352539 108.30322266 132.11352539 C133.38322266 132.11352539 158.46322266 132.11352539 184.30322266 132.11352539 C184.30322266 142.34352539 184.30322266 152.57352539 184.30322266 163.11352539 C159.27563855 163.20646661 134.2480966 163.27767966 109.22037411 163.32077408 C97.59729543 163.34132314 85.97432653 163.36929584 74.35131836 163.4152832 C64.21043952 163.45538698 54.06964025 163.48101369 43.92868429 163.48987937 C38.56842883 163.4950546 33.20840084 163.50705499 27.84821892 163.53644562 C-35.19669293 163.86842504 -35.19669293 163.86842504 -57.69677734 146.11352539 C-58.35806641 145.62754883 -59.01935547 145.14157227 -59.70068359 144.64086914 C-66.75398079 139.06947681 -71.68647943 131.47841239 -76.69677734 124.11352539 C-77.24849609 123.30657227 -77.80021484 122.49961914 -78.36865234 121.66821289 C-82.41782135 115.09456197 -83.97773145 107.56272427 -85.69677734 100.11352539 C-85.87329834 99.35185059 -86.04981934 98.59017578 -86.23168945 97.80541992 C-89.98729231 76.0682666 -86.65187161 53.64181303 -74.69677734 35.11352539 C-62.99291302 18.61605706 -47.78170798 7.96830549 -28.13427734 3.48852539 C-27.21453125 3.27196289 -26.29478516 3.05540039 -25.34716797 2.83227539 C-22.80014582 2.23900783 -20.25610123 1.65135614 -17.69677734 1.11352539 C-16.8965062 0.94004074 -16.09623505 0.76655609 -15.27171326 0.58781433 C-10.1755942 -0.08829091 -5.13514277 -0.01675726 0 0 Z " fill="#FDFDFD" transform="translate(182.69677734375,154.886474609375)" />
    <path d="M0 0 C0 33.99 0 67.98 0 103 C-42.17786561 103 -42.17786561 103 -56 90 C-61.33668668 84.32581535 -64.69215529 78.42221415 -67 71 C-67.22558594 70.278125 -67.45117188 69.55625 -67.68359375 68.8125 C-71.36523711 54.18748915 -70.31098827 36.27521555 -63 23 C-56.32410604 12.35035964 -47.28986764 6.07032135 -35.625 1.75 C-23.85770058 -0.68461367 -12.0096837 0 0 0 Z " fill="#030303" transform="translate(208,185)" />
</svg>
